HIERARCHY
ROOT Hips
{
	OFFSET 0.000000 0.000000 0.000000 
	CHANNELS 6 Xposition Yposition Zposition Yrotation Zrotation Xrotation 
	JOINT Lumbar
	{
		OFFSET 0.000000 0.000000 0.000000 
		CHANNELS 3 Zrotation Xrotation Yrotation
		JOINT Neck
		{
			OFFSET 0.000000 0.445665 0.000000 
			CHANNELS 3 Zrotation Xrotation Yrotation
			End Site
			{
				OFFSET 0.000000 0.227535 0.000000 
			}
		}
		JOINT RightShoulder
		{
			OFFSET 0.019635 0.377685 0.194865 
			CHANNELS 3 Zrotation Xrotation Yrotation
			JOINT RightElbow
			{
				OFFSET 0.000000 -0.243375 0.000000 
				CHANNELS 2 Zrotation Yrotation
				JOINT RightWrist
				{
					OFFSET 0.000000 -0.264825 0.000000 
					CHANNELS 2 Zrotation Xrotation
					End Site
					{
						OFFSET 0.006600 -0.176220 0.000990 
					}
				}
			}
		}
		JOINT LeftShoulder
		{
			OFFSET 0.019635 0.377685 -0.194865 
			CHANNELS 3 Zrotation Xrotation Yrotation
			JOINT LeftElbow
			{
				OFFSET 0.000000 -0.243375 0.000000 
				CHANNELS 2 Zrotation Yrotation
				JOINT LeftWrist
				{
					OFFSET 0.000000 -0.264825 0.000000 
					CHANNELS 2 Zrotation Xrotation
					End Site
					{
						OFFSET 0.006600 -0.176220 -0.000990 
					}
				}
			}
		}
	}
	JOINT RightHip
	{
		OFFSET 0.052140 -0.069960 0.075570 
		CHANNELS 3 Zrotation Xrotation Yrotation
		JOINT RightKnee
		{
			OFFSET 0.000000 -0.402270 0.000000 
			CHANNELS 1 Zrotation
			JOINT RightAnkle
			{
				OFFSET 0.000000 -0.404085 0.000000 
				CHANNELS 3 Zrotation Xrotation Yrotation
				End Site
				{
					OFFSET 0.204105 -0.089430 0.008415 
				}
			}
		}
	}
	JOINT LeftHip
	{
		OFFSET 0.052140 -0.069960 -0.075570 
		CHANNELS 3 Zrotation Xrotation Yrotation
		JOINT LeftKnee
		{
			OFFSET 0.000000 -0.402270 0.000000 
			CHANNELS 1 Zrotation
			JOINT LeftAnkle
			{
				OFFSET 0.000000 -0.404085 0.000000 
				CHANNELS 3 Zrotation Xrotation Yrotation
				End Site
				{
					OFFSET 0.204105 -0.089430 -0.008415 
				}
			}
		}
	}
}
MOTION
Frames: 32
Frame Time: 0.02
-0 0.95578 -0 -80.43653 0 1.30417 1.97225 -0.37175 1.47837 -29.94759 2.47805 6.10642 29.4579 -17.6867 -3.76846 15.81433 82.24788 -0.58186 -2.14699 21.61855 4.87489 19.01535 6.20931 -78.02791 -5.06358 -1.00757 7.78866 1.75052 19.15153 -23.41169 11.71016 -6.17825 -6.02861 2.61679 -5.48364 6.18436 -15.42509 9.05387 7.41195 12.16719
-4e-05 0.95579 0.00102 -80.10894 0 1.29239 2.21418 -0.37577 1.27583 -30.38232 2.5126 6.17126 29.52377 -17.71482 -3.89328 15.62775 82.22605 -0.52897 -2.05466 21.8029 4.70295 18.30644 6.12425 -77.56024 -5.14509 -0.80817 7.74502 1.76068 18.82809 -23.51279 11.77518 -6.25418 -6.09351 2.64821 -5.47356 5.89571 -15.55098 9.08582 7.42673 12.18745
-8e-05 0.9558 0.00205 -79.77756 0 1.28144 2.45597 -0.3805 1.07187 -30.81516 2.54586 6.23288 29.5871 -17.73994 -4.01815 15.4396 82.20399 -0.47637 -1.9614 21.99225 4.53714 17.56706 6.04091 -77.10578 -5.23131 -0.60594 7.70012 1.77044 18.50695 -23.61323 11.84094 -6.33336 -6.16272 2.67937 -5.46427 5.6038 -15.67583 9.11725 7.44107 12.20689
-0.00012 0.9558 0.00309 -79.43019 0 1.27297 2.69828 -0.38699 0.85937 -31.24286 2.57516 6.2832 29.64242 -17.7556 -4.14201 15.24487 82.18077 -0.42489 -1.86452 22.19679 4.3896 16.68893 5.95859 -76.66275 -5.32285 -0.3946 7.64941 1.77841 18.1942 -23.70943 11.90886 -6.42497 -6.24832 2.71053 -5.45793 5.29829 -15.79886 9.14729 7.45411 12.22356
-0.00016 0.95582 0.00408 -79.17034 0 1.2505 2.93629 -0.38285 0.69104 -31.69562 2.62646 6.39457 29.74196 -17.82409 -4.26836 15.08687 82.16365 -0.36808 -1.78803 22.31291 4.13977 16.53352 5.86488 -76.11521 -5.36913 -0.2365 7.62905 1.79554 17.83986 -23.82502 11.96364 -6.44918 -6.24533 2.74259 -5.43586 5.06754 -15.9328 9.18514 7.4744 12.25523
-0.00019 0.9558 0.00517 -78.72373 0 1.25825 3.18418 -0.40205 0.43017 -32.09642 2.63049 6.3759 29.74668 -17.77892 -4.39123 14.85007 82.1337 -0.32219 -1.66767 22.62133 4.11025 14.85809 5.7994 -75.81903 -5.52264 0.03742 7.54481 1.7935 17.57191 -23.90153 12.04728 -6.61697 -6.43091 2.77212 -5.44716 4.67708 -16.04269 9.20616 7.47912 12.25492
-0.00014 0.95567 0.0065 -77.74657 0 1.34778 3.45891 -0.48104 -0.10889 -32.34729 2.50473 5.99097 29.49045 -17.4225 -4.49034 14.39157 82.06586 -0.30985 -1.42535 23.44352 4.67967 8.7162 5.77722 -75.97475 -5.88728 0.62119 7.2726 1.73465 17.56014 -23.8504 12.20612 -7.19137 -7.15113 2.80034 -5.55333 3.83371 -16.09475 9.18202 7.44138 12.16536
-9e-05 0.95551 0.00794 -76.583 0 1.46807 3.74406 -0.5843 -0.73769 -32.54738 2.33077 5.47563 29.13844 -16.95033 -4.58796 13.85389 81.98548 -0.308 -1.13878 24.46376 5.4737 1.08596 5.78885 -76.42268 -6.37399 1.32341 6.93751 1.65718 17.63243 -23.7629 12.3949 -7.90918 -8.05944 2.82518 -5.69265 2.83055 -16.12162 9.14085 7.38799 12.04382
-8e-05 0.95536 0.00935 -75.51248 0 1.57572 4.02503 -0.67988 -1.31154 -32.77495 2.1785 5.02411 28.82876 -16.5291 -4.69646 13.35433 81.91231 -0.29902 -0.87247 25.40593 6.17207 -5.70093 5.80882 -76.90283 -6.8635 1.97996 6.63861 1.59057 17.65463 -23.70542 12.57336 -8.55591 -8.87429 2.84766 -5.81535 1.90681 -16.1537 9.10628 7.34111 11.93709
8e-05 0.9552 0.01068 -74.40489 0 1.67836 4.30337 -0.76224 -1.94561 -32.98303 2.02801 4.55344 28.52245 -16.11548 -4.76468 12.84522 81.83263 -0.29959 -0.60495 26.29835 6.84398 -13.20647 5.73296 -76.7123 -7.11613 2.60602 6.30844 1.51348 17.72652 -23.593 12.73873 -9.22874 -9.72493 2.88582 -5.94522 0.95354 -16.20954 9.07558 7.29596 11.8282
-5e-05 0.95505 0.0122 -73.33274 0 1.79792 4.58997 -0.87671 -2.47496 -33.22074 1.86129 4.09166 28.18851 -15.65784 -4.91294 12.33791 81.76369 -0.28328 -0.33022 27.34054 7.62352 -19.5503 5.85943 -77.95571 -7.87967 3.31869 6.02745 1.45428 17.71549 -23.58386 12.93744 -9.87975 -10.54295 2.89148 -6.06722 0.02498 -16.21313 9.03398 7.2445 11.71749
-0.00095 0.95497 0.01417 -72.38293 0 1.96362 4.89435 -1.0841 -2.69852 -33.5434 1.67065 3.68595 27.78396 -15.11229 -5.31465 11.84868 81.72608 -0.21323 -0.03944 28.75451 8.653 -22.48155 6.58186 -83.36189 -10.12161 4.2845 5.9062 1.44521 17.44965 -23.89049 13.22948 -10.44818 -11.2486 2.79999 -6.16606 -0.80609 -16.0519 8.9565 7.17114 11.59888
-0.00212 0.9549 0.01633 -71.47962 0 2.14386 5.20706 -1.32097 -2.81266 -33.89927 1.46369 3.29355 27.35865 -14.52539 -5.79234 11.36518 81.6999 -0.12664 0.25574 30.31005 9.78168 -24.16239 7.49822 -90.14758 -12.85454 5.32516 5.83502 1.4557 17.09842 -24.29825 13.55223 -10.98691 -11.91034 2.67758 -6.25443 -1.60455 -15.84449 8.8707 7.09371 11.48161
-0.00318 0.95482 0.01845 -70.56829 0 2.31306 5.51768 -1.53778 -2.97332 -34.24619 1.25818 2.89552 26.95392 -13.95398 -6.2125 10.88315 81.66947 -0.05062 0.54435 31.7978 10.8598 -26.3117 8.29599 -96.12428 -15.29972 6.30363 5.73525 1.45951 16.78975 -24.64558 13.85555 -11.53145 -12.5769 2.57449 -6.34339 -2.41201 -15.67505 8.79496 7.02337 11.37066
-0.00421 0.95477 0.0204 -69.59319 0 2.50256 5.82184 -1.78398 -3.1504 -34.56587 1.07597 2.49192 26.49702 -13.39263 -6.72415 10.38111 81.63485 0.03783 0.85388 33.31149 11.96861 -28.9355 9.22367 -102.8887 -18.02512 7.40602 5.65787 1.45257 16.46822 -25.05291 14.18387 -12.11525 -13.31472 2.44839 -6.45173 -3.25127 -15.43081 8.69127 6.92963 11.22907
-0.00535 0.95466 0.02274 -68.76679 0 2.65218 6.14091 -1.97513 -3.26646 -34.95024 0.84223 2.10385 26.14733 -12.80178 -7.07029 9.92321 81.61152 0.10457 1.12023 34.79662 13.0345 -30.25306 9.9262 -108.32506 -20.27793 8.26546 5.54666 1.47388 16.15202 -25.35955 14.46596 -12.60612 -13.89025 2.36373 -6.51601 -4.01239 -15.3345 8.64513 6.88476 11.15241
-0.00668 0.95446 0.02601 -68.31969 0 2.69328 6.50118 -2.01093 -3.2373 -35.5078 0.46863 1.7647 26.07823 -12.14289 -6.87999 9.5865 81.61951 0.10646 1.26632 36.21312 13.95232 -28.27898 9.9613 -109.85278 -21.13977 8.44402 5.32958 1.56004 15.86893 -25.36567 14.62298 -12.86509 -14.03308 2.39595 -6.46763 -4.58289 -15.6373 8.75064 6.96817 11.2517
-0.0081 0.95421 0.02967 -68.02498 0 2.69243 6.87484 -1.98924 -3.15064 -36.12727 0.0445 1.44013 26.12071 -11.45625 -6.53124 9.29485 81.63803 0.08622 1.36839 37.58529 14.82268 -25.02755 9.76303 -109.97905 -21.50316 8.37319 5.07746 1.67538 15.59219 -25.26711 14.73124 -13.02705 -14.01046 2.47313 -6.37394 -5.07194 -16.09643 8.91605 7.10236 11.41699
-0.0095 0.95397 0.03319 -67.67492 0 2.70745 7.24212 -1.99146 -3.09224 -36.71915 -0.35554 1.1028 26.12776 -10.77999 -6.29569 8.98184 81.64977 0.07663 1.49061 38.94905 15.71799 -22.34297 9.6698 -110.67975 -22.07033 8.41074 4.84136 1.78323 15.3163 -25.21469 14.85399 -13.22197 -14.06185 2.53154 -6.29655 -5.58609 -16.49534 9.06042 7.21849 11.55423
-0.01083 0.95379 0.03656 -67.26897 0 2.73722 7.61462 -2.00496 -3.02136 -37.31719 -0.76192 0.7897 26.07503 -10.10933 -5.8914 8.67043 81.67003 0.06482 1.61318 40.44394 16.60553 -19.65958 9.58601 -111.68383 -22.7462 8.47262 4.60502 1.86833 15.02994 -25.17027 15.00673 -13.46517 -14.12424 2.57685 -6.23679 -6.14917 -16.83929 9.179 7.31353 11.68338
-0.01232 0.95347 0.04032 -67.01337 0 2.7252 7.97469 -1.9798 -2.96389 -37.90748 -1.16563 0.43203 26.1667 -9.42389 -5.7968 8.36919 81.67524 0.05251 1.72354 41.64642 17.49304 -16.70374 9.42669 -111.71606 -23.07659 8.42269 4.36216 2.00633 14.75768 -25.08497 15.08937 -13.58233 -14.11568 2.66682 -6.12987 -6.59182 -17.34502 9.36488 7.46427 11.84494
-0.01423 0.95284 0.04521 -67.14847 0 2.61466 8.33557 -1.87051 -2.96115 -38.53636 -1.5598 -0.07465 26.68576 -8.68012 -6.62058 8.06059 81.63359 0.04102 1.8188 42.10646 18.42171 -13.1609 9.09653 -109.30524 -22.52216 8.13315 4.0918 2.29518 14.61533 -24.89269 14.95035 -13.40073 -14.03591 2.81702 -5.90139 -6.71854 -18.17945 9.72692 7.75816 12.08014
-0.0163 0.95206 0.05045 -67.42583 0 2.46146 8.67551 -1.72197 -2.9739 -39.13866 -1.94726 -0.62279 27.33364 -7.92743 -7.75486 7.76532 81.57692 0.03015 1.90157 42.26062 19.34567 -9.41987 8.70083 -105.97631 -21.64411 7.73841 3.81828 2.63531 14.47293 -24.66439 14.74804 -13.09237 -13.87841 3.02167 -5.62705 -6.72792 -19.18767 10.15257 8.10506 12.34517
-0.01832 0.95131 0.05543 -67.63093 0 2.3243 9.00072 -1.58637 -2.97752 -39.7068 -2.33142 -1.13699 27.88893 -7.19473 -8.73273 7.47982 81.52876 0.02127 1.98518 42.52145 20.25217 -5.87442 8.34707 -103.1285 -20.94699 7.38531 3.55905 2.94231 14.26667 -24.46716 14.60299 -12.82364 -13.69698 3.23417 -5.37592 -6.79295 -20.16732 10.54739 8.42781 12.59695
-0.02027 0.95069 0.06084 -67.87833 0 2.20279 9.43179 -1.47183 -2.98724 -40.48242 -2.74539 -1.71339 28.6014 -6.39285 -9.77668 7.12865 81.47363 0.00276 2.08861 42.92673 21.24092 -1.84511 7.93477 -99.96519 -20.09195 7.04704 3.24828 3.28621 14.31858 -24.21119 14.34305 -12.62166 -13.7455 3.30571 -5.11509 -6.84411 -20.93451 10.95724 8.75661 12.85165
-0.02239 0.94979 0.06543 -68.06334 0 2.03535 9.63346 -1.30184 -2.9895 -40.80615 -3.09349 -2.17157 29.00365 -5.73446 -10.75003 6.91738 81.42962 0.0038 2.14719 42.94732 22.05648 1.21539 7.63085 -97.2563 -19.49278 6.65937 3.03967 3.57208 13.84735 -24.06169 14.29908 -12.259 -13.31687 3.68935 -4.86181 -6.89889 -22.18979 11.34405 9.07967 13.10412
-0.02486 0.94816 0.06763 -68.0937 0 1.78532 9.23911 -1.01539 -2.96001 -39.99752 -3.27498 -2.2817 28.62157 -5.46462 -11.52944 7.08386 81.41746 0.06702 2.09566 42.08237 22.4066 1.46792 7.65181 -96.05568 -19.7039 6.13383 3.15712 3.62266 11.80371 -24.29201 14.94561 -11.4216 -11.43265 4.86751 -4.66236 -6.97731 -24.69011 11.70466 9.41828 13.36308
-0.0275 0.94628 0.06899 -68.04667 0 1.48561 8.60879 -0.67051 -2.92349 -38.71579 -3.38834 -2.27328 27.90445 -5.34136 -12.21448 7.39097 81.41744 0.14849 1.998 40.82345 22.58077 0.74736 7.78343 -95.34587 -20.18174 5.56821 3.3704 3.62302 9.25613 -24.6185 15.79849 -10.43833 -9.09941 6.36657 -4.46931 -7.06505 -27.68182 12.0307 9.74154 13.61476
-0.03009 0.94454 0.07073 -67.99877 0 1.1852 8.06489 -0.33392 -2.89619 -37.57712 -3.52277 -2.32721 27.27012 -5.15774 -12.89182 7.63754 81.41345 0.21622 1.91419 39.67644 22.82796 0.52152 7.85931 -94.39901 -20.52356 5.04046 3.51069 3.68923 7.02477 -24.84888 16.50399 -9.56379 -7.07772 7.75537 -4.25794 -7.16086 -30.49268 12.33626 10.04148 13.85628
-0.03258 0.94269 0.07246 -68.10448 0 0.97672 7.60705 -0.0698 -2.84673 -36.73552 -3.6958 -2.34836 26.92734 -4.94783 -13.7895 7.87232 81.40233 0.30684 1.85847 38.79619 23.10378 0.08358 7.95594 -93.47714 -20.91549 4.42727 3.77193 3.58208 4.43065 -25.29243 17.42843 -8.50807 -4.60631 9.00071 -4.10567 -7.20717 -33.14796 12.79278 10.46798 14.15554
-0.0353 0.94101 0.07402 -67.87454 0 0.5716 6.91562 0.35455 -2.8381 -35.17039 -3.77606 -2.40714 25.90396 -4.82701 -14.20679 8.16242 81.40923 0.35423 1.73531 37.27826 23.27886 -0.14862 8.0363 -92.63337 -21.27166 3.9822 3.80805 3.81532 2.46569 -25.32374 17.95308 -7.79362 -2.95734 10.61434 -3.83786 -7.35207 -36.21971 12.93094 10.63059 14.33267
-0.0388 0.93988 0.07535 -66.69646 0 -0.41592 5.62548 1.24115 -2.97395 -31.66254 -3.58471 -2.61515 23.01557 -4.92167 -13.27683 8.59191 81.4625 0.27704 1.42163 34.03385 23.2138 0.44117 8.04726 -91.88007 -21.45746 4.02729 3.16379 5.0698 2.42067 -24.12035 17.2683 -8.08587 -3.76545 13.21557 -3.2035 -7.83967 -40.50377 12.15371 10.03237 14.17162
